<svg width="264" height="110" viewBox="0 0 264 110" fill="none" xmlns="http://www.w3.org/2000/svg">
<defs>
    <style>
      .st0 {
        fill: none;
      }

      .st1 {
        mask: url(#mask);
      }

      .st2 {
        fill: #fff;
      }

      .st2, .st3 {
        fill-rule: evenodd;
      }

      .st3 {
        fill: #e6e6e6;
      }

      .st4 {
        fill-opacity: .2;
      }

      .st5 {
        fill: #f2617a;
      }

      .st6 {
        fill: #086dd7;
      }

      .st7 {
        fill: #003d4f;
      }

      .st8 {
        opacity: .6;
      }

      .st9 {
        clip-path: url(#clippath);
      }
    </style>
    <clipPath id="clippath">
      <rect class="st0" width="264" height="110"/>
    </clipPath>
    <mask id="mask" x="0" y="0" width="264" height="110" maskUnits="userSpaceOnUse">
      <g id="mask0_1_2">
        <path class="st2" d="M132.5,51.8c18.5,0,33.5-9.6,33.5-21.5s0-.7,0-1.1c37,3,66,34,66,71.8v8.9H32v-8.9c0-38.1,29.6-69.3,67-71.8,0,.4,0,.7,0,1.1,0,11.9,15,21.5,33.5,21.5Z"/>
      </g>
    </mask>
  </defs>
    <path fill-rule="evenodd" clip-rule="evenodd" d="M132.5 51.8277C151.002 51.8277 166 42.2107 166 30.3476C166 29.9947 165.987 29.6437 165.96 29.2949C202.936 32.325 232 63.2943 232 101.052V110H32V101.052C32 62.9526 61.592 31.765 99.0454 29.2195C99.0153 29.5931 99 29.9692 99 30.3476C99 42.2107 113.998 51.8277 132.5 51.8277Z" fill="#E6E6E6"/>
    <mask id="mask0" style="mask-type:alpha" maskUnits="userSpaceOnUse" x="32" y="29" width="200" height="81">
        <path fill-rule="evenodd" clip-rule="evenodd" d="M132.5 51.8277C151.002 51.8277 166 42.2107 166 30.3476C166 29.9947 165.987 29.6437 165.96 29.2949C202.936 32.325 232 63.2943 232 101.052V110H32V101.052C32 62.9526 61.592 31.765 99.0454 29.2195C99.0153 29.5931 99 29.9692 99 30.3476C99 42.2107 113.998 51.8277 132.5 51.8277Z" fill="white"/>
    </mask>
    <g mask="url(#mask0)">
        <rect width="264" height="110" fill="#20BA31"/>
        <g opacity="0.6">
            <ellipse cx="132.5" cy="31.8476" rx="39.6351" ry="26.9138" fill="black" fill-opacity="0.16"/>
        </g>
    </g>

    <polygon class="st5" points="119.7 68.8 101.3 104.9 109.9 104.9 128.3 68.8 119.7 68.8"/>
    <path class="st7" d="M136.7,100.5c-.7,0-1.4,0-2-.5-.4-.6-.6-1.3-.5-2v-10.7h3.1l2-4h-5.1v-6.5h-5.9v6.5h-3l-2,4h5v12.8c0,.9.1,1.8.5,2.6.3.6.9,1.2,1.5,1.6.7.4,1.4.6,2.2.7.9.1,1.7.2,2.6.2.6,0,1.2,0,1.8,0,.6,0,1.1,0,1.7-.2v-4.6c-.3,0-.6.1-.9.1-.3,0-.6,0-1,0Z"/>
    <polygon class="st7" points="163.1 83.3 159.2 97.9 159.1 97.9 155.4 83.3 149.6 83.3 146 98 145.9 98 141.9 83.3 138.1 90.9 142.5 104.9 148.7 104.9 152.4 90.4 152.5 90.4 156.3 104.9 162.4 104.9 169.3 83.3 163.1 83.3"/>

</svg>
 